# WaveFront *.obj file (generated by Autodesk ATF)

mtllib blackboard.mtl

g 솔리드2

v -1.000000 -17.812290 -0.300000
v -1.000000 -17.812290 0.400000
v -1.000000 0.787710 -0.300000
v -1.000000 0.787710 0.400000
v 0.000000 -17.000000 0.100000
v 0.000000 -17.000000 0.400000
v 0.000000 0.000000 0.100000
v 0.000000 0.000000 0.400000
v 30.000000 -17.000000 0.100000
v 30.000000 -17.000000 0.400000
v 30.000000 0.000000 0.100000
v 30.000000 0.000000 0.400000
v 31.000000 -17.812290 -0.300000
v 31.000000 -17.812290 0.400000
v 31.000000 0.787710 -0.300000
v 31.000000 0.787710 0.400000
vt 0.000000 0.003937 0.000000
vt 1.181102 0.003937 0.000000
vt 1.181102 0.015748 0.000000
vt 0.000000 0.015748 0.000000
vt 0.000000 0.003937 0.000000
vt 0.669291 0.003937 0.000000
vt 0.669291 0.015748 0.000000
vt 0.000000 0.015748 0.000000
vt 0.000000 0.003937 0.000000
vt 1.181102 0.003937 0.000000
vt 1.181102 0.015748 0.000000
vt 0.000000 0.015748 0.000000
vt 0.000000 0.003937 0.000000
vt 0.669291 0.003937 0.000000
vt 0.669291 0.015748 0.000000
vt 0.000000 0.015748 0.000000
vt 0.732283 -0.011811 0.000000
vt 0.732283 0.015748 0.000000
vt 0.000000 0.015748 0.000000
vt 0.000000 -0.011811 0.000000
vt 1.259843 -0.011811 0.000000
vt 1.259843 0.015748 0.000000
vt 0.000000 0.015748 0.000000
vt 0.000000 -0.011811 0.000000
vt 0.732283 -0.011811 0.000000
vt 0.732283 0.015748 0.000000
vt 0.000000 0.015748 0.000000
vt 0.000000 -0.011811 0.000000
vt 1.259843 -0.011811 0.000000
vt 1.259843 0.015748 0.000000
vt 0.000000 0.015748 0.000000
vt 0.000000 -0.011811 0.000000
vt -0.629921 -0.366142 0.000000
vt 0.629921 -0.366142 0.000000
vt 0.629921 0.366142 0.000000
vt -0.629921 0.366142 0.000000
vt -0.590551 -0.334162 0.000000
vt -0.590551 0.335130 0.000000
vt 0.590551 0.335130 0.000000
vt 0.590551 -0.334162 0.000000
vt -0.629921 -0.366626 0.000000
vt 0.629921 -0.366626 0.000000
vt 0.629921 0.365658 0.000000
vt -0.629921 0.365658 0.000000
vt -0.590551 -0.334646 0.000000
vt 0.590551 -0.334646 0.000000
vt 0.590551 0.334646 0.000000
vt -0.590551 0.334646 0.000000
vn 0.000000 1.000000 0.000000
vn 0.000000 1.000000 0.000000
vn 0.000000 1.000000 0.000000
vn 0.000000 1.000000 0.000000
vn -1.000000 0.000000 0.000000
vn -1.000000 0.000000 0.000000
vn -1.000000 0.000000 0.000000
vn -1.000000 0.000000 0.000000
vn 0.000000 -1.000000 0.000000
vn 0.000000 -1.000000 0.000000
vn 0.000000 -1.000000 0.000000
vn 0.000000 -1.000000 0.000000
vn 1.000000 0.000000 0.000000
vn 1.000000 0.000000 0.000000
vn 1.000000 0.000000 0.000000
vn 1.000000 0.000000 0.000000
vn -1.000000 0.000000 0.000000
vn -1.000000 0.000000 0.000000
vn -1.000000 0.000000 0.000000
vn -1.000000 0.000000 0.000000
vn 0.000000 1.000000 0.000000
vn 0.000000 1.000000 0.000000
vn 0.000000 1.000000 0.000000
vn 0.000000 1.000000 0.000000
vn 1.000000 0.000000 0.000000
vn 1.000000 0.000000 0.000000
vn 1.000000 0.000000 0.000000
vn 1.000000 0.000000 0.000000
vn 0.000000 -1.000000 0.000000
vn 0.000000 -1.000000 0.000000
vn 0.000000 -1.000000 0.000000
vn 0.000000 -1.000000 0.000000
vn 0.000000 0.000000 1.000000
vn 0.000000 0.000000 1.000000
vn 0.000000 0.000000 1.000000
vn 0.000000 0.000000 1.000000
vn 0.000000 0.000000 1.000000
vn 0.000000 0.000000 1.000000
vn 0.000000 0.000000 1.000000
vn 0.000000 0.000000 1.000000
vn 0.000000 0.000000 -1.000000
vn 0.000000 0.000000 -1.000000
vn 0.000000 0.000000 -1.000000
vn 0.000000 0.000000 -1.000000
vn 0.000000 0.000000 1.000000
vn 0.000000 0.000000 1.000000
vn 0.000000 0.000000 1.000000
vn 0.000000 0.000000 1.000000
usemtl 246,164,49
f 9/1/1 5/2/2 10/4/4
f 10/4/4 5/2/2 6/3/3
f 11/5/5 9/6/6 12/8/8
f 12/8/8 9/6/6 10/7/7
f 7/9/9 11/10/10 8/12/12
f 8/12/12 11/10/10 12/11/11
f 5/13/13 7/14/14 6/16/16
f 6/16/16 7/14/14 8/15/15
f 2/18/18 4/19/19 1/17/17
f 1/17/17 4/19/19 3/20/20
f 4/22/22 16/23/23 3/21/21
f 3/21/21 16/23/23 15/24/24
f 16/26/26 14/27/27 15/25/25
f 15/25/25 14/27/27 13/28/28
f 14/30/30 2/31/31 13/29/29
f 13/29/29 2/31/31 1/32/32
f 4/36/36 2/33/33 6/37/37
f 6/37/37 2/33/33 14/34/34
f 6/37/37 14/34/34 10/40/40
f 10/40/40 14/34/34 16/35/35
f 10/40/40 16/35/35 12/39/39
f 12/39/39 16/35/35 4/36/36
f 12/39/39 4/36/36 8/38/38
f 8/38/38 4/36/36 6/37/37
f 13/41/41 1/42/42 15/44/44
f 15/44/44 1/42/42 3/43/43
usemtl 0,0,0
f 5/45/45 9/46/46 7/48/48
f 7/48/48 9/46/46 11/47/47

# 16 vertices
# 48 texture params
# 48 normals
# 28 facets

# 1 groups
